<?xml version="1.0" encoding="utf-8"?>
<!-- Generator: Adobe Illustrator 16.0.0, SVG Export Plug-In . SVG Version: 6.00 Build 0)  -->
<!DOCTYPE svg PUBLIC "-//W3C//DTD SVG 1.1//EN" "http://www.w3.org/Graphics/SVG/1.1/DTD/svg11.dtd">
<svg version="1.1" id="Layer_1" xmlns="http://www.w3.org/2000/svg" xmlns:xlink="http://www.w3.org/1999/xlink" x="0px" y="0px"
	 width="691.002px" height="344.587px" viewBox="0 0 691.002 344.587" enable-background="new 0 0 691.002 344.587"
	 xml:space="preserve">
<g>
	<path fill="#869FB1" d="M194.826,152.938c0,1.519-0.255,3.041-0.757,4.56c-0.51,1.519-0.893,2.79-1.14,3.798
		c-0.761,4.309-1.584,9.116-2.469,14.438c-0.893,5.317-2.28,10.577-4.181,15.763c-1.897,5.193-4.433,10.256-7.598,15.194
		c-3.168,4.939-7.157,9.059-11.964,12.347c-1.519,1.271-3.799,2.659-6.84,4.181c-3.038,1.519-5.194,2.276-6.458,2.276
		c-1.519,0-26.15,7.219-29.06,8.737c-2.914,1.523-4.75,2.346-5.507,2.47c-0.761,0.131-1.395-0.058-1.901-0.568
		c-0.51,0.51-1.082,0.444-1.708-0.189c-0.638-0.63-1.584-0.951-2.852-0.951c-1.774,0-2.979,0.255-3.609,0.761
		c-0.634,0.51-1.457,0.51-2.465,0c-0.514-0.506-2.222-0.63-5.132-0.383c-2.914,0.255-4.746,0.638-5.507,1.14
		c-0.761,0.51-1.461,0.699-2.091,0.572c-0.634-0.127-1.839-0.44-3.609-0.951c-0.51,4.815-1.012,9.688-1.519,14.627
		c-0.51,4.938-1.395,9.939-2.659,15.005c-0.255,0-0.51,0.127-0.761,0.379c-0.255,0.51-0.51,0.823-0.757,0.95
		c-0.255,0.128-0.51,0.321-0.761,0.568c-0.51,3.041-1.33,6.712-2.47,11.018c-1.14,4.309-2.218,8.613-3.227,12.914
		c-1.017,4.31-1.967,8.17-2.852,11.59c-0.889,3.416-1.329,5.762-1.329,7.025c0,1.271,0.819,3.104,2.469,5.511
		c1.646,2.403,2.469,4.366,2.469,5.886c0,2.024-1.268,3.609-3.799,4.749c-2.535,1.14-4.309,1.708-5.317,1.708
		c-3.037,0-6.017-1.078-8.927-3.227c-2.914-2.156-5.572-4.815-7.98-7.98c-2.407-3.161-4.432-6.326-6.075-9.494
		c-1.65-3.165-2.601-5.89-2.852-8.17c-0.255-3.543-0.634-7.655-1.14-12.347c-0.51-4.68-0.947-9.174-1.33-13.482
		c-0.378-4.305-0.378-28.303,0-31.723c0.383-3.416,0.696-6.836,0.951-10.256c0.251-3.42,0.506-6.392,0.761-8.927
		c0.757-12.915,2.338-25.072,4.75-36.468c2.403-11.396,5.507-22.665,9.305-33.81c3.799-11.141,7.976-22.414,12.536-33.81
		c4.56-11.4,9.499-23.677,14.816-36.851c-1.774-1.519-3.988-2.527-6.647-3.037c-2.663-0.506-5.259-0.951-7.791-1.33
		c-2.535-0.382-5.066-1.074-7.598-2.091c-2.535-1.008-4.556-2.91-6.079-5.7v-3.799c3.042-1.264,6.585-2.214,10.639-2.848
		c4.046-0.63,6.964-0.951,8.737-0.951c9.116,0,18.804,1.584,29.061,4.75c10.256,3.169,20.261,7.474,30.011,12.915
		c9.746,5.453,19.187,11.91,28.303,19.376c9.116,7.474,17.343,15.639,24.693,24.504c0.758,1.268,1.643,3.227,2.659,5.886
		c1.009,2.659,1.832,5.51,2.47,8.548c0.626,3.042,1.14,5.955,1.519,8.737C194.637,149.271,194.826,151.419,194.826,152.938z
		 M149.242,131.286c0-1.264-0.189-3.856-0.572-7.787c-0.378-3.926-1.202-6.774-2.469-8.548c-2.276-2.787-5.255-5.634-8.927-8.548
		c-3.675-2.91-7.346-5.568-11.018-7.976c-3.671-2.404-7.404-4.429-11.207-6.079c-3.799-1.646-6.967-2.721-9.495-3.23
		c1.519,5.831,2.527,11.717,3.037,17.664c0.506,5.955,0.506,11.207,0,15.767c-0.51,4.309-1.268,8.486-2.276,12.536
		c-1.017,4.054-1.522,7.853-1.522,11.396c0,3.551-0.189,7.663-0.568,12.347c-0.378,4.688-0.951,9.058-1.712,13.104
		c-0.255,1.777-0.699,3.93-1.329,6.461c-0.634,2.535-1.33,5.066-2.087,7.598c-0.761,2.535-1.395,4.749-1.901,6.646
		c-0.51,1.901-0.757,3.358-0.757,4.371v8.355c8.606-7.845,16.203-14.623,22.792-20.323c6.581-5.7,12.092-11.141,16.524-16.335
		c4.428-5.19,7.787-10.697,10.066-16.524C148.102,146.357,149.242,139.393,149.242,131.286z"/>
	<path fill="#869FB1" d="M301.186,253.988c-1.013,3.042-4.116,8.169-9.306,15.384c-5.193,7.219-11.207,14.568-18.042,22.035
		c-6.84,7.474-13.742,13.996-20.706,19.565c-6.967,5.568-12.602,8.482-16.903,8.737c-1.271,0-3.296-0.321-6.079-0.951
		c-2.79-0.634-5.642-1.461-8.548-2.469c-2.914-1.009-6.778-2.404-11.585-4.178c-1.271,0-1.843-0.128-1.712-0.383
		c0.124-0.247-0.568-0.247-2.09,0c-3.038,0-6.075-1.576-9.116-4.745c-3.038-3.165-5.828-6.774-8.355-10.828
		c-2.535-4.05-4.625-7.977-6.272-11.778c-1.65-3.799-2.465-5.948-2.465-6.458c-0.259-2.28-0.572-4.873-0.951-7.787
		c-0.382-2.91-0.572-4.997-0.572-6.268c0-1.009,0-2.469,0-4.367c0-1.901,0.127-4.116,0.382-6.65c0.248-2.527,0.626-5.128,1.14-7.787
		c0.502-2.659,0.881-4.873,1.136-6.646c1.522-5.824,3.671-12.026,6.461-18.615c2.782-6.585,5.819-13.545,9.116-20.895
		c0-0.247,1.577-3.289,4.75-9.116c3.161-5.823,7.025-12.281,11.585-19.376c4.56-7.087,9.116-13.544,13.676-19.372
		c4.56-5.824,8.104-8.861,10.635-9.12c1.522,0,3.289,0.321,5.321,0.951c2.021,0.638,3.798,1.33,5.317,2.091
		c3.037,0.51,6.268,2.411,9.688,5.696c3.416,3.296,6.771,6.334,10.066,9.12c1.009,0.757,2.47,1.584,4.367,2.469
		c1.901,0.889,3.478,2.342,4.749,4.367c1.264,1.773,2.527,4.054,3.799,6.84c1.264,2.79,1.901,4.811,1.901,6.079
		c0,0.51-0.255,1.897-0.761,4.177c-0.51,2.28-1.206,4.75-2.091,7.408c-0.889,2.659-1.897,5.259-3.038,7.787
		c-1.14,2.535-2.222,4.56-3.23,6.079c-5.572,8.107-10.388,15.071-14.434,20.895c-4.054,5.828-7.918,11.272-11.589,16.334
		c-3.671,5.066-7.597,9.75-11.774,14.055c-4.178,4.309-9.437,8.737-15.767,13.297c-1.268,1.012-2.086,3.481-2.469,7.408
		c-0.378,3.926-0.568,6.523-0.568,7.787l0.378,14.816c8.104-1.522,15.701-3.992,22.796-7.408c7.087-3.42,14.055-7.276,20.891-11.589
		c6.84-4.301,13.545-8.737,20.134-13.293C287.638,262.726,294.35,258.297,301.186,253.988z M254.461,170.795
		c-7.852,11.651-14.244,23.236-19.183,34.756c-4.939,11.527-9.058,22.985-12.347,34.381c3.799-5.317,7.532-10.828,11.207-16.524
		c3.667-5.7,7.025-11.458,10.067-17.286c3.038-5.824,5.441-11.779,7.219-17.854C253.19,182.191,254.207,176.368,254.461,170.795z"/>
	<path fill="#869FB1" d="M408.314,187.888c0,0.761,0,2.28,0,4.56c0,2.28-0.065,4.939-0.193,7.977
		c-0.127,3.041-0.321,6.21-0.568,9.499c-0.255,3.292-0.51,5.828-0.761,7.597c-0.51,4.815-1.329,10.256-2.469,16.335
		s-2.276,12.034-3.416,17.854c-1.14,5.831-2.156,11.651-3.042,17.475c-0.889,5.832-1.329,9.12-1.329,9.877
		c0,1.271,0.317,4.692,0.951,10.256c0.63,5.576,1.453,10.388,2.469,14.438h-0.379c-0.255,0-0.761,0.378-1.522,1.14
		c2.28,2.535,5.445,4.938,9.499,7.219c-1.271,0-2.79,0.51-4.56,1.519c-1.773,1.017-3.292,1.519-4.556,1.519
		c-2.033,0-4.626-0.95-7.791-2.848c-3.168-1.901-6.523-4.305-10.066-7.219c-3.548-2.91-6.712-6.079-9.495-9.499
		c-2.79-3.416-4.691-7.025-5.7-10.824c-2.029-6.33-3.227-12.157-3.609-17.475c-0.379-5.317-0.51-9.178-0.379-11.585
		c0.124-2.407,0.313-4.749,0.568-7.029c0.251-2.28,0.251-5.062,0-8.358c-2.531,2.535-4.812,5.51-6.836,8.927
		c-2.029,3.42-4.432,6.399-7.219,8.927c-2.535,3.041-5.07,6.588-7.597,10.639c-2.535,4.054-5.07,8.992-7.597,14.816
		c-0.51,0.51-0.823,1.84-0.951,3.988c-0.128,2.156-0.568,3.864-1.33,5.128c-2.28,4.054-4.433,7.853-6.458,11.396
		c-2.029,3.552-4.56,6.458-7.597,8.738c-1.271,1.271-3.23,2.411-5.89,3.42c-2.658,1.008-4.749,1.519-6.268,1.519h-5.696
		c-1.017,0-2.091-0.758-3.23-2.28c-1.14-1.519-2.346-2.658-3.609-3.416c-3.548-2.531-6.207-5.001-7.976-7.408
		c-1.774-2.403-3.104-4.684-3.988-6.84c-0.893-2.148-1.395-4.367-1.522-6.646c-0.127-2.28-0.189-4.306-0.189-6.079
		c0-2.28,0.189-4.873,0.572-7.787c0.379-2.91,0.951-5.824,1.708-8.737c0.762-2.91,1.453-5.634,2.091-8.169
		c0.63-2.527,1.33-4.429,2.087-5.696c2.025-5.568,4.618-11.589,7.791-18.046c3.161-6.458,6.392-12.471,9.684-18.043
		c2.531-4.56,5.758-9.936,9.688-16.146c3.926-6.202,8.228-12.915,12.919-20.133c4.68-7.219,9.746-14.438,15.195-21.652
		c5.441-7.219,11.207-13.869,17.285-19.944c0.502-0.506,1.387-0.696,2.659-0.572c1.264,0.131,2.659,0.189,4.177,0.189
		c5.317,0,10.697,0.827,16.146,2.469c5.441,1.65,10.573,3.231,15.384,4.75v4.177c-2.28,3.551-4.556,6.268-6.836,8.169
		c-2.28,1.897-3.169,3.988-2.659,6.268c2.782-0.506,6.079-0.572,9.877-0.189c3.799,0.379,7.598,0.823,11.396,1.33
		c-0.51,2.79-0.448,6.588,0.189,11.396C407.994,183.586,408.314,186.624,408.314,187.888z M379.061,171.174
		c-1.773,0.51-3.358,1.271-4.749,2.28c-1.395,1.012-3.103,2.152-5.128,3.416c-0.51-0.757-0.699-1.33-0.568-1.708
		c0.124-0.379-0.066-0.568-0.572-0.568c-2.276,2.531-4.877,5.762-7.787,9.685c-2.914,3.93-5.762,7.98-8.548,12.157
		c-2.79,4.177-5.259,8.297-7.408,12.347c-2.152,4.054-3.609,7.729-4.367,11.018c-0.51,1.268-1.329,2.979-2.469,5.128
		c-1.14,2.152-1.967,4.243-2.469,6.268l0.761-1.14l0.379,0.379c-1.519,3.296-2.79,6.144-3.799,8.548
		c-1.017,2.412-2.091,5.128-3.23,8.169c-1.14,3.038-2.408,6.333-3.799,9.877c-1.395,3.547-2.979,8.107-4.75,13.676
		c15.446-20.516,27.858-39.131,37.229-55.844C367.155,198.144,374.246,183.586,379.061,171.174z"/>
	<path fill="#869FB1" d="M573.749,290.077c-5.7,4.815-10.321,9.627-13.865,14.438c-2.535,3.038-5.766,5.256-9.688,6.647
		c-3.93,1.395-7.029,2.218-9.305,2.469c-2.033,0-4.371,0.51-7.029,1.519c-2.659,1.017-4.626,1.519-5.89,1.519
		c-7.598,0-14.434-1.897-20.512-5.695c-6.079-3.799-11.339-8.606-15.768-14.438c-4.432-5.824-8.107-12.405-11.017-19.755
		c-2.914-7.343-5.128-14.685-6.646-22.031l-1.519-1.519c-4.054,3.547-6.712,7.725-7.976,12.536
		c-1.271,4.811-4.938,19.314-5.7,22.981c-0.761,3.675-4.243,21.783-5.128,24.693c-0.893,2.906-2.091,5.507-3.609,7.787h-4.56
		c-1.268,0-2.469-0.572-3.609-1.708c-1.136-1.141-2.597-1.712-4.367-1.712c-0.255,0-0.444,0.123-0.572,0.383
		c-0.127,0.247-0.317,0.378-0.568,0.378h-0.379c0,0.248,0.124,0.379,0.379,0.379l-3.038,2.28c-3.798-3.037-6.905-6.458-9.309-10.256
		c-2.408-3.799-4.243-7.532-5.507-11.207c-1.271-3.667-2.091-7.343-2.469-11.018c-0.383-3.667-0.572-6.897-0.572-9.688
		c0-12.157,1.392-24.122,4.182-35.9c2.782-11.774,5.317-22.726,7.597-32.859c1.264-5.568,3.099-11.836,5.507-18.804
		c2.404-6.964,4.939-14.244,7.597-21.842c2.659-7.597,5.379-15.133,8.169-22.603c2.783-7.47,5.317-14.495,7.598-21.084
		c0.502-1.264,1.642-4.618,3.42-10.067c1.766-5.445,3.988-11.836,6.646-19.187c2.659-7.342,5.569-15.195,8.738-23.553
		c3.165-8.355,6.268-16.014,9.306-22.982c3.041-6.963,5.699-12.783,7.979-17.475c2.28-4.684,4.178-7.029,5.696-7.029
		c2.024,0,3.609,0.951,4.749,2.852c1.141,1.897,2.215,3.988,3.23,6.268c1.009,2.28,1.767,5.066,2.276,8.354
		c0,0.761-0.757,4.56-2.276,11.4c-1.522,6.836-3.361,15.006-5.511,24.5c-2.152,9.499-4.498,19.503-7.025,30.011
		c-2.534,10.511-4.691,19.697-6.461,27.542h0.383c-1.777,6.589-3.741,13.236-5.89,19.944c-2.156,6.712-4.367,13.997-6.646,21.845
		c-3.042,10.635-6.268,22.286-9.688,34.95s-6.523,24.821-9.306,36.468c-0.259,1.519-0.827,3.227-1.712,5.128
		c-0.889,1.897-1.329,4.367-1.329,7.408c3.798-4.808,7.466-9.936,11.017-15.384c3.544-5.445,6.836-11.589,9.877-18.425
		c0.757-2.025,1.14-4.239,1.14-6.651c0-2.403,0.247-4.745,0.757-7.025c1.77-5.568,3.289-11.017,4.56-16.334
		c1.264-5.317,3.037-10.507,5.317-15.578c0.761-2.527,2.338-6.079,4.749-10.635c2.404-4.56,5.128-9.12,8.17-13.676
		c3.037-4.56,6.268-8.606,9.684-12.157c3.42-3.543,6.774-5.317,10.067-5.317c1.77,0,4.494,0.7,8.169,2.091
		c3.667,1.391,7.466,2.979,11.396,4.745c3.922,1.778,7.466,3.552,10.639,5.321c3.16,1.774,5.128,3.038,5.885,3.799
		c-3.799,8.355-8.803,16.146-15.005,23.36c-6.206,7.219-12.096,14.882-17.664,22.985c-1.271,1.774-2.091,4.177-2.47,7.215
		c-0.379,3.042-0.95,5.7-1.708,7.98c-0.51,2.79-1.396,6.017-2.659,9.688c-1.271,3.671-2.156,7.025-2.658,10.067
		c-0.514,4.054-0.827,8.865-0.951,14.434c-0.131,5.576-0.188,8.992-0.188,10.256c0,0.761,0.247,2.346,0.757,4.75
		c0.507,2.411,1.141,5.317,1.901,8.737c0.758,3.42,1.519,6.84,2.28,10.256c0.757,3.42,1.519,6.399,2.276,8.931
		c0.506,0.758,1.391,1.897,2.662,3.416c4.808-0.247,9.812-1.453,15.006-3.609c5.186-2.148,10.635-4.807,16.334-7.976
		c5.696-3.165,11.71-6.709,18.043-10.635C576.466,273.047,579.445,285.271,573.749,290.077z"/>
	<path fill="#869FB1" d="M661.691,179.15c0,2.791-0.638,4.815-1.901,6.079c-1.519-0.758-3.358-2.149-5.507-4.178
		c-2.156-2.025-4.247-3.289-6.268-3.798c-3.552-1.264-7.54-2.404-11.969-3.42c-4.433-1.008-7.284-1.519-8.548-1.519
		c-5.066,0-9.495,1.65-13.293,4.939c-3.799,3.292-5.7,6.588-5.7,9.877c0,0.51,0.571,2.408,1.708,5.696
		c1.14,3.296,2.469,6.967,3.992,11.018c1.519,4.054,3.095,8.297,4.745,12.725c1.646,4.437,3.1,8.169,4.37,11.207
		c2.527,7.095,4.618,13.742,6.269,19.944c1.643,6.21,2.972,12.479,3.988,18.804c0,0.51,0.44,1.712,1.329,3.609
		c0.885,1.901,1.836,3.864,2.848,5.889c1.013,2.029,1.901,4.178,2.663,6.458c0.757,2.279,1.14,4.054,1.14,5.317
		c0,1.519-0.131,4.054-0.383,7.597c-0.255,3.552-1.14,6.589-2.658,9.12c-1.271,2.276-3.293,4.433-6.079,6.458
		c-2.79,2.028-5.695,3.798-8.737,5.317c-2.28,1.519-5.259,2.593-8.927,3.23c-3.675,0.626-6.145,0.946-7.408,0.946h-7.219
		c-6.074,0-11.206-1.329-15.384-3.988c-4.178-2.658-7.729-6.078-10.635-10.256c-2.918-4.177-5.321-8.672-7.219-13.486
		c-1.901-4.808-3.864-9.495-5.89-14.055c-1.016-2.28-2.534-4.873-4.56-7.787c-2.028-2.91-3.037-5-3.037-6.268
		c0-2.786,1.387-5.947,4.177-9.499c2.787-3.543,6.203-7.219,10.261-11.018c3.543,1.519,4.873,3.552,3.987,6.079
		c-0.893,2.535-1.329,4.938-1.329,7.218c0,1.774-0.131,3.486-0.383,5.128c-0.255,1.65-0.255,3.485,0,5.507
		c4.812,5.321,10.697,9.247,17.668,11.778c6.96,2.535,13.355,3.799,19.184,3.799c3.037,0,5.128-0.062,6.268-0.189
		s3.478-1.457,7.029-3.988c0-1.77-0.131-3.165-0.383-4.182c-1.271-1.77-3.169-5.128-5.695-10.066
		c-2.535-4.939-5.511-10.763-8.931-17.475c-3.416-6.708-6.837-13.865-10.257-21.463c-3.416-7.597-6.589-15.063-9.494-22.413
		c-2.914-7.342-5.321-14.306-7.219-20.895c-1.901-6.581-2.849-12.026-2.849-16.334c0-9.368,3.289-17.286,9.878-23.743
		c6.581-6.458,14.685-9.688,24.311-9.688c4.808,0,10.256,1.206,16.335,3.609c6.078,2.412,11.713,5.7,16.906,9.877
		c5.187,4.181,9.619,9.058,13.294,14.626C659.848,166.869,661.691,172.824,661.691,179.15z"/>
</g>
</svg>
